<svg width="336" height="100" viewBox="0 0 336 100" fill="none" xmlns="http://www.w3.org/2000/svg">
<path d="M323.556 99.2623H12.4444C5.60311 99.2623 0 93.6757 0 86.8545V12.4078C0 5.58662 5.60311 1.31277e-05 12.4444 1.31277e-05H323.556C330.397 1.31277e-05 336 5.58662 336 12.4078V86.8545C336 93.6757 330.397 99.2623 323.556 99.2623Z" fill="black"/>
<path d="M323.556 1.98836C329.317 1.98836 334.006 6.663 334.006 12.4078V86.8545C334.006 92.5993 329.317 97.274 323.556 97.274H12.4444C6.68267 97.274 1.99422 92.5993 1.99422 86.8545V12.4078C1.99422 6.663 6.68267 1.98836 12.4444 1.98836H323.556ZM323.556 1.31277e-05H12.4444C5.60311 1.31277e-05 0 5.58662 0 12.4078V86.8545C0 93.6757 5.60311 99.2623 12.4444 99.2623H323.556C330.397 99.2623 336 93.6757 336 86.8545V12.4078C336 5.58662 330.397 1.31277e-05 323.556 1.31277e-05Z" fill="#A6A6A6"/>
<path d="M118.017 25.4205C118.017 27.4926 117.395 29.1521 116.169 30.3898C114.76 31.857 112.924 32.5953 110.675 32.5953C108.525 32.5953 106.69 31.8446 105.184 30.365C103.675 28.8636 102.922 27.0211 102.922 24.8156C102.922 22.6101 103.675 20.7675 105.184 19.2786C106.69 17.7866 108.525 17.0359 110.675 17.0359C111.745 17.0359 112.766 17.2561 113.739 17.6656C114.71 18.0781 115.5 18.6365 116.073 19.3251L114.772 20.6341C113.774 19.4585 112.414 18.8784 110.675 18.8784C109.107 18.8784 107.747 19.4244 106.593 20.5256C105.451 21.6299 104.879 23.0599 104.879 24.8156C104.879 26.5713 105.451 28.0137 106.593 29.118C107.747 30.2068 109.107 30.7651 110.675 30.7651C112.339 30.7651 113.739 30.2068 114.844 29.1056C115.572 28.3766 115.986 27.3716 116.094 26.0874H110.675V24.2944H117.905C117.992 24.6822 118.017 25.0575 118.017 25.4205Z" fill="white" stroke="white" stroke-width="0.16" stroke-miterlimit="10"/>
<path d="M129.488 19.2041H122.696V23.9191H128.819V25.712H122.696V30.427H129.488V32.254H120.773V17.3771H129.488V19.2041Z" fill="white" stroke="white" stroke-width="0.16" stroke-miterlimit="10"/>
<path d="M137.582 32.254H135.66V19.2041H131.494V17.3771H141.751V19.2041H137.582V32.254Z" fill="white" stroke="white" stroke-width="0.16" stroke-miterlimit="10"/>
<path d="M149.175 32.254V17.3771H151.094V32.254H149.175Z" fill="white" stroke="white" stroke-width="0.16" stroke-miterlimit="10"/>
<path d="M159.603 32.254H157.696V19.2041H153.515V17.3771H163.785V19.2041H159.603V32.254Z" fill="white" stroke="white" stroke-width="0.16" stroke-miterlimit="10"/>
<path d="M183.204 30.3401C181.732 31.8446 179.909 32.5953 177.735 32.5953C175.547 32.5953 173.724 31.8446 172.253 30.3401C170.784 28.8388 170.053 26.9962 170.053 24.8156C170.053 22.6349 170.784 20.7923 172.253 19.291C173.724 17.7866 175.547 17.0359 177.735 17.0359C179.897 17.0359 181.72 17.7866 183.192 19.3034C184.672 20.8172 185.404 22.6473 185.404 24.8156C185.404 26.9962 184.672 28.8388 183.204 30.3401ZM173.675 29.0932C174.782 30.2068 176.129 30.7651 177.735 30.7651C179.327 30.7651 180.687 30.2068 181.782 29.0932C182.887 27.9796 183.447 26.5496 183.447 24.8156C183.447 23.0816 182.887 21.6516 181.782 20.538C180.687 19.4244 179.327 18.866 177.735 18.866C176.129 18.866 174.782 19.4244 173.675 20.538C172.57 21.6516 172.01 23.0816 172.01 24.8156C172.01 26.5496 172.57 27.9796 173.675 29.0932Z" fill="white" stroke="white" stroke-width="0.16" stroke-miterlimit="10"/>
<path d="M188.101 32.254V17.3771H190.434L197.689 28.9473H197.773L197.689 26.0873V17.3771H199.609V32.254H197.605L190.008 20.113H189.924L190.008 22.9854V32.254H188.101Z" fill="white" stroke="white" stroke-width="0.16" stroke-miterlimit="10"/>
<path d="M169.581 53.9801C163.735 53.9801 158.959 58.4159 158.959 64.536C158.959 70.6065 163.735 75.0889 169.581 75.0889C175.439 75.0889 180.214 70.6065 180.214 64.536C180.214 58.4159 175.439 53.9801 169.581 53.9801ZM169.581 70.9323C166.373 70.9323 163.613 68.2925 163.613 64.536C163.613 60.7299 166.373 58.1367 169.581 58.1367C172.788 58.1367 175.56 60.7299 175.56 64.536C175.56 68.2925 172.788 70.9323 169.581 70.9323ZM146.406 53.9801C140.548 53.9801 135.785 58.4159 135.785 64.536C135.785 70.6065 140.548 75.0889 146.406 75.0889C152.261 75.0889 157.027 70.6065 157.027 64.536C157.027 58.4159 152.261 53.9801 146.406 53.9801ZM146.406 70.9323C143.195 70.9323 140.426 68.2925 140.426 64.536C140.426 60.7299 143.195 58.1367 146.406 58.1367C149.613 58.1367 152.373 60.7299 152.373 64.536C152.373 68.2925 149.613 70.9323 146.406 70.9323ZM118.829 57.2154V61.7009H129.572C129.257 64.2072 128.417 66.0498 127.129 67.334C125.561 68.885 123.119 70.6065 118.829 70.6065C112.218 70.6065 107.041 65.2867 107.041 58.6951C107.041 52.1034 112.218 46.7836 118.829 46.7836C122.404 46.7836 125.005 48.1764 126.924 49.9817L130.094 46.8208C127.409 44.2648 123.838 42.3013 118.829 42.3013C109.763 42.3013 102.144 49.656 102.144 58.6951C102.144 67.7341 109.763 75.0889 118.829 75.0889C123.729 75.0889 127.409 73.4883 130.303 70.4856C133.268 67.5294 134.192 63.3728 134.192 60.0165C134.192 58.9742 134.105 58.0157 133.949 57.2154H118.829ZM231.594 60.6927C230.72 58.3321 228.023 53.9801 222.529 53.9801C217.084 53.9801 212.551 58.2577 212.551 64.536C212.551 70.4483 217.037 75.0889 223.051 75.0889C227.914 75.0889 230.72 72.1327 231.874 70.4111L228.265 68.0133C227.061 69.769 225.422 70.9323 223.051 70.9323C220.696 70.9323 219.007 69.8559 217.924 67.7341L232.083 61.8932L231.594 60.6927ZM217.159 64.2072C217.037 60.1375 220.329 58.053 222.687 58.053C224.535 58.053 226.103 58.9742 226.626 60.2926L217.159 64.2072ZM205.651 74.4468H210.305V43.4273H205.651V74.4468ZM198.029 56.3314H197.873C196.828 55.0968 194.833 53.9801 192.307 53.9801C187.006 53.9801 182.159 58.6206 182.159 64.5702C182.159 70.4856 187.006 75.0889 192.307 75.0889C194.833 75.0889 196.828 73.9629 197.873 72.6911H198.029V74.2048C198.029 78.2404 195.866 80.4087 192.379 80.4087C189.535 80.4087 187.771 78.3614 187.043 76.6398L182.996 78.3242C184.162 81.1221 187.252 84.5653 192.379 84.5653C197.836 84.5653 202.44 81.3641 202.44 73.5751V54.6222H198.029V56.3314ZM192.705 70.9323C189.498 70.9323 186.813 68.2553 186.813 64.5702C186.813 60.8509 189.498 58.1367 192.705 58.1367C195.866 58.1367 198.358 60.8509 198.358 64.5702C198.358 68.2553 195.866 70.9323 192.705 70.9323ZM253.385 43.4273H242.253V74.4468H246.895V62.6935H253.385C258.54 62.6935 263.595 58.9742 263.595 53.0588C263.595 47.1465 258.527 43.4273 253.385 43.4273ZM253.506 58.3787H246.895V47.7421H253.506C256.972 47.7421 258.95 50.6114 258.95 53.0588C258.95 55.4597 256.972 58.3787 253.506 58.3787ZM282.2 53.9212C278.846 53.9212 275.358 55.3977 273.924 58.6703L278.043 60.3918C278.93 58.6703 280.56 58.1119 282.284 58.1119C284.692 58.1119 287.134 59.5543 287.171 62.101V62.4267C286.331 61.9428 284.533 61.2263 282.321 61.2263C277.885 61.2263 273.364 63.6613 273.364 68.2056C273.364 72.3623 276.998 75.0392 281.083 75.0392C284.206 75.0392 285.93 73.634 287.012 71.9993H287.171V74.3971H291.654V62.4981C291.654 56.9983 287.535 53.9212 282.2 53.9212ZM281.64 70.9198C280.121 70.9198 278.006 70.1692 278.006 68.2925C278.006 65.8916 280.644 64.9703 282.928 64.9703C284.972 64.9703 285.93 65.4201 287.171 66.0126C286.807 68.885 284.328 70.9198 281.64 70.9198ZM307.988 54.6005L302.652 68.0474H302.493L296.977 54.6005H291.972L300.26 73.3921L295.531 83.8488H300.381L313.152 54.6005H307.988ZM266.146 74.4468H270.8V43.4273H266.146V74.4468Z" fill="white"/>
<path d="M25.9715 18.7078C25.2404 19.4709 24.8173 20.659 24.8173 22.1975V77.0772C24.8173 78.6157 25.2404 79.8038 25.9715 80.5669L26.152 80.7344L56.9955 49.9941V49.2682L26.152 18.5279L25.9715 18.7078Z" fill="url(#paint0_linear_768_157)"/>
<path d="M67.2653 60.246L56.9955 49.994V49.2682L67.2778 39.0162L67.508 39.1496L79.6849 46.0577C83.16 48.0181 83.16 51.2441 79.6849 53.217L67.508 60.1126L67.2653 60.246Z" fill="url(#paint1_linear_768_157)"/>
<path d="M67.508 60.1127L56.9955 49.6312L25.9715 80.5669C27.1257 81.7767 29.008 81.9225 31.1484 80.7127L67.508 60.1127Z" fill="url(#paint2_linear_768_157)"/>
<path d="M67.508 39.1496L31.1484 18.5496C29.008 17.3522 27.1257 17.498 25.9715 18.7078L56.9955 49.6311L67.508 39.1496Z" fill="url(#paint3_linear_768_157)"/>
<defs>
<linearGradient id="paint0_linear_768_157" x1="54.257" y1="77.6487" x2="12.6107" y2="35.8794" gradientUnits="userSpaceOnUse">
<stop stop-color="#00A0FF"/>
<stop offset="0.0066" stop-color="#00A1FF"/>
<stop offset="0.2601" stop-color="#00BEFF"/>
<stop offset="0.5122" stop-color="#00D2FF"/>
<stop offset="0.7604" stop-color="#00DFFF"/>
<stop offset="1" stop-color="#00E3FF"/>
</linearGradient>
<linearGradient id="paint1_linear_768_157" x1="84.21" y1="49.6276" x2="23.9866" y2="49.6276" gradientUnits="userSpaceOnUse">
<stop stop-color="#FFE000"/>
<stop offset="0.4087" stop-color="#FFBD00"/>
<stop offset="0.7754" stop-color="#FFA500"/>
<stop offset="1" stop-color="#FF9C00"/>
</linearGradient>
<linearGradient id="paint2_linear_768_157" x1="61.7916" y1="43.9333" x2="5.31581" y2="-12.7093" gradientUnits="userSpaceOnUse">
<stop stop-color="#FF3A44"/>
<stop offset="1" stop-color="#C31162"/>
</linearGradient>
<linearGradient id="paint3_linear_768_157" x1="18.1621" y1="98.825" x2="43.3811" y2="73.5318" gradientUnits="userSpaceOnUse">
<stop stop-color="#32A071"/>
<stop offset="0.0685" stop-color="#2DA771"/>
<stop offset="0.4762" stop-color="#15CF74"/>
<stop offset="0.8009" stop-color="#06E775"/>
<stop offset="1" stop-color="#00F076"/>
</linearGradient>
</defs>
</svg>
