<svg width="30" height="30" viewBox="0 0 30 30" fill="none" xmlns="http://www.w3.org/2000/svg">
<path d="M6.67963 4.65371L7.62623 3.70711C8.01675 3.31658 8.64992 3.31658 9.04044 3.70711L12.9596 7.62623C13.3501 8.01675 13.3501 8.64992 12.9596 9.04044L11.3623 10.6377C11.1459 10.8541 11.0923 11.1846 11.2292 11.4583C12.8114 14.6227 15.3773 17.1886 18.5417 18.7708C18.8154 18.9077 19.146 18.8541 19.3623 18.6377L20.9596 17.0404C21.3501 16.6499 21.9832 16.6499 22.3738 17.0404L26.2929 20.9596C26.6834 21.3501 26.6834 21.9832 26.2929 22.3738L25.3463 23.3204C23.2349 25.4317 19.8924 25.6693 17.5037 23.8777L13.6286 20.9714C11.885 19.6638 10.3362 18.115 9.02857 16.3714L6.12226 12.4964C4.33072 10.1076 4.56827 6.76506 6.67963 4.65371Z" stroke="#33363F" stroke-width="2"/>
</svg>
